<svg xmlns="http://www.w3.org/2000/svg" viewBox="0 0 512 512">
  <defs>
    <linearGradient id="g" x1="0" x2="1" y1="0" y2="1">
      <stop offset="0" stop-color="#10b981"/>
      <stop offset="1" stop-color="#047857"/>
    </linearGradient>
  </defs>
  <rect width="512" height="512" rx="120" fill="url(#g)"/>
  <circle cx="256" cy="256" r="168" fill="#ffffff" opacity="0.12"/>
  <path fill="#fbbf24" d="M270 86c33 29 53 68 53 111 0 78-63 141-141 141-43 0-82-20-111-53 12 80 81 141 164 141 92 0 167-75 167-167 0-83-61-152-132-173z"/>
  <path fill="#ffffff" d="M254 138c-42 22-76 57-95 101 51-5 94-34 121-76 6 39 29 73 64 93-3-54-36-100-90-118z" opacity="0.95"/>
  <text x="256" y="392" font-size="72" font-family="Arial, sans-serif" font-weight="800" text-anchor="middle" fill="#ffffff">P</text>
</svg>
